<svg width="423" height="80" viewBox="0 0 423 80" fill="none" xmlns="http://www.w3.org/2000/svg">
<rect width="80" height="80" fill="#5A6575"/>
<rect x="15" width="65" height="65" fill="#D5DCF0"/>
<rect x="8" y="11" width="7" height="6" fill="#8A90A3"/>
<rect x="56" y="17" width="8" height="17" fill="#8E96A9"/>
<rect x="32" y="30" width="8" height="17" fill="#8E96A9"/>
<rect y="30" width="15" height="8" fill="#4A5263"/>
<rect x="10" y="65" width="5" height="5" fill="#475062"/>
<rect x="56" y="65" width="8" height="8" fill="#4F5868"/>
<rect x="56" y="65" width="8" height="8" fill="#4F5868"/>
<rect x="56" y="65" width="8" height="8" fill="#4F5868"/>
<rect x="56" y="65" width="8" height="8" fill="#4F5868"/>
<rect x="40" y="72" width="8" height="8" fill="#4F5868"/>
<rect x="40" y="72" width="8" height="8" fill="#4F5868"/>
<rect x="40" y="72" width="8" height="8" fill="#4F5868"/>
<rect x="40" y="72" width="8" height="8" fill="#4F5868"/>
<rect x="72" y="49" width="8" height="8" fill="#8990AA"/>
<rect x="24" width="8" height="8" fill="#8990AA"/>
<rect x="50" y="34" width="14" height="6" fill="#AAB2C5"/>
<rect x="33" y="59" width="23" height="6" fill="#AAB2C5"/>
<rect x="15" y="43" width="8" height="6" fill="#AAB2C5"/>
<rect x="50" y="34" width="17" height="6" transform="rotate(-90 50 34)" fill="#AAB2C5"/>
<rect x="23" y="65" width="42" height="10" transform="rotate(-90 23 65)" fill="#AAB2C5"/>
<rect x="343" width="80" height="80" fill="#FEDF5F"/>
<rect x="353" y="10" width="61" height="61" fill="#FFFFB6"/>
<rect x="360" y="17" width="46" height="46" fill="#FFFFDF"/>
</svg>
