<svg width="423" height="423" viewBox="0 0 423 423" fill="none" xmlns="http://www.w3.org/2000/svg">
<rect y="172" width="80" height="80" fill="#5A6575"/>
<rect x="15" y="172" width="65" height="65" fill="#D5DCF0"/>
<rect x="8" y="183" width="7" height="6" fill="#8A90A3"/>
<rect x="56" y="189" width="8" height="17" fill="#8E96A9"/>
<rect x="32" y="202" width="8" height="17" fill="#8E96A9"/>
<rect y="202" width="15" height="8" fill="#4A5263"/>
<rect x="10" y="237" width="5" height="5" fill="#475062"/>
<rect x="56" y="237" width="8" height="8" fill="#4F5868"/>
<rect x="56" y="237" width="8" height="8" fill="#4F5868"/>
<rect x="56" y="237" width="8" height="8" fill="#4F5868"/>
<rect x="56" y="237" width="8" height="8" fill="#4F5868"/>
<rect x="40" y="244" width="8" height="8" fill="#4F5868"/>
<rect x="40" y="244" width="8" height="8" fill="#4F5868"/>
<rect x="40" y="244" width="8" height="8" fill="#4F5868"/>
<rect x="40" y="244" width="8" height="8" fill="#4F5868"/>
<rect x="72" y="221" width="8" height="8" fill="#8990AA"/>
<rect x="24" y="172" width="8" height="8" fill="#8990AA"/>
<rect x="50" y="206" width="14" height="6" fill="#AAB2C5"/>
<rect x="33" y="231" width="23" height="6" fill="#AAB2C5"/>
<rect x="15" y="215" width="8" height="6" fill="#AAB2C5"/>
<rect x="50" y="206" width="17" height="6" transform="rotate(-90 50 206)" fill="#AAB2C5"/>
<rect x="23" y="237" width="42" height="10" transform="rotate(-90 23 237)" fill="#AAB2C5"/>
<rect x="423" y="172" width="80" height="80" transform="rotate(90 423 172)" fill="#5A6575"/>
<rect x="423" y="187" width="65" height="65" transform="rotate(90 423 187)" fill="#D5DCF0"/>
<rect x="412" y="180" width="7" height="6" transform="rotate(90 412 180)" fill="#8A90A3"/>
<rect x="406" y="228" width="8" height="17" transform="rotate(90 406 228)" fill="#8E96A9"/>
<rect x="393" y="204" width="8" height="17" transform="rotate(90 393 204)" fill="#8E96A9"/>
<rect x="393" y="172" width="15" height="8" transform="rotate(90 393 172)" fill="#4A5263"/>
<rect x="358" y="182" width="5" height="5" transform="rotate(90 358 182)" fill="#475062"/>
<rect x="358" y="228" width="8" height="8" transform="rotate(90 358 228)" fill="#4F5868"/>
<rect x="358" y="228" width="8" height="8" transform="rotate(90 358 228)" fill="#4F5868"/>
<rect x="358" y="228" width="8" height="8" transform="rotate(90 358 228)" fill="#4F5868"/>
<rect x="358" y="228" width="8" height="8" transform="rotate(90 358 228)" fill="#4F5868"/>
<rect x="351" y="212" width="8" height="8" transform="rotate(90 351 212)" fill="#4F5868"/>
<rect x="351" y="212" width="8" height="8" transform="rotate(90 351 212)" fill="#4F5868"/>
<rect x="351" y="212" width="8" height="8" transform="rotate(90 351 212)" fill="#4F5868"/>
<rect x="351" y="212" width="8" height="8" transform="rotate(90 351 212)" fill="#4F5868"/>
<rect x="374" y="244" width="8" height="8" transform="rotate(90 374 244)" fill="#8990AA"/>
<rect x="423" y="196" width="8" height="8" transform="rotate(90 423 196)" fill="#8990AA"/>
<rect x="389" y="222" width="14" height="6" transform="rotate(90 389 222)" fill="#AAB2C5"/>
<rect x="364" y="205" width="23" height="6" transform="rotate(90 364 205)" fill="#AAB2C5"/>
<rect x="380" y="187" width="8" height="6" transform="rotate(90 380 187)" fill="#AAB2C5"/>
<rect x="389" y="222" width="17" height="6" fill="#AAB2C5"/>
<rect x="358" y="195" width="42" height="10" fill="#AAB2C5"/>
<rect x="172" y="343" width="80" height="80" fill="#FEDF5F"/>
<rect x="182" y="353" width="61" height="61" fill="#FFFFB6"/>
<rect x="189" y="360" width="46" height="46" fill="#FFFFDF"/>
<rect x="172" width="80" height="80" fill="#FEDF5F"/>
<rect x="182" y="10" width="61" height="61" fill="#FFFFB6"/>
<rect x="189" y="17" width="46" height="46" fill="#FFFFDF"/>
</svg>
